HIERARCHY
ROOT Hips
{
	OFFSET 0.000000 0.000000 0.000000
	CHANNELS 6 Xposition Yposition Zposition Zrotation Yrotation Xrotation 
	JOINT LHipJoint
	{
		OFFSET 0.000000 0.000000 0.000000
		CHANNELS 3 Zrotation Yrotation Xrotation
		JOINT LeftUpLeg
		{
			OFFSET 1.363060 -1.794630 0.839290
			CHANNELS 3 Zrotation Yrotation Xrotation
			JOINT LeftLeg
			{
				OFFSET 2.448110 -6.726130 0.000000
				CHANNELS 3 Zrotation Yrotation Xrotation
				JOINT LeftFoot
				{
					OFFSET 2.562200 -7.039590 0.000000
					CHANNELS 3 Zrotation Yrotation Xrotation
					JOINT LeftToeBase
					{
						OFFSET 0.157640 -0.433110 2.322550
						CHANNELS 3 Zrotation Yrotation Xrotation
						End Site
						{
							OFFSET 0.000000 0.000000 0.000000
						}
					}
				}
			}
		}
	}
	JOINT RHipJoint
	{
		OFFSET 0.000000 0.000000 0.000000
		CHANNELS 3 Zrotation Yrotation Xrotation
		JOINT RightUpLeg
		{
			OFFSET -1.305520 -1.794630 0.839290
			CHANNELS 3 Zrotation Yrotation Xrotation
			JOINT RightLeg
			{
				OFFSET -2.542530 -6.985550 0.000000
				CHANNELS 3 Zrotation Yrotation Xrotation
				JOINT RightFoot
				{
					OFFSET -2.568260 -7.056230 0.000000
					CHANNELS 3 Zrotation Yrotation Xrotation
					JOINT RightToeBase
					{
						OFFSET -0.164730 -0.452590 2.363150
						CHANNELS 3 Zrotation Yrotation Xrotation
						End Site
						{
							OFFSET 0.000000 0.000000 0.000000
						}
					}
				}
			}
		}
	}
	JOINT LowerBack
	{
		OFFSET 0.000000 0.000000 0.000000
		CHANNELS 3 Zrotation Yrotation Xrotation
		JOINT Spine
		{
			OFFSET 0.028270 2.035590 -0.193380
			CHANNELS 3 Zrotation Yrotation Xrotation
			JOINT Spine1
			{
				OFFSET 0.056720 2.048850 -0.042750
				CHANNELS 3 Zrotation Yrotation Xrotation
				JOINT Neck
				{
					OFFSET 0.000000 0.000000 0.000000
					CHANNELS 3 Zrotation Yrotation Xrotation
					JOINT Neck1
					{
						OFFSET -0.054170 1.746240 0.172020
						CHANNELS 3 Zrotation Yrotation Xrotation
						JOINT Head
						{
							OFFSET 0.104070 1.761360 -0.123970
							CHANNELS 3 Zrotation Yrotation Xrotation
							End Site
							{
								OFFSET 0.000000 0.000000 0.000000
							}
						}
					}
				}
				JOINT LeftShoulder
				{
					OFFSET 0.000000 0.000000 0.000000
					CHANNELS 3 Zrotation Yrotation Xrotation
					JOINT LeftArm
					{
						OFFSET 3.362410 1.200890 -0.311210
						CHANNELS 3 Zrotation Yrotation Xrotation
						JOINT LeftForeArm
						{
							OFFSET 4.983000 -0.000000 -0.000000
							CHANNELS 3 Zrotation Yrotation Xrotation
							JOINT LeftHand
							{
								OFFSET 3.483560 -0.000000 -0.000000
								CHANNELS 3 Zrotation Yrotation Xrotation
								JOINT LeftFingerBase
								{
									OFFSET 0.000000 0.000000 0.000000
									CHANNELS 3 Zrotation Yrotation Xrotation
									JOINT LeftHandIndex1
									{
										OFFSET 0.715260 -0.000000 -0.000000
										CHANNELS 3 Zrotation Yrotation Xrotation
										End Site
										{
											OFFSET 0.000000 0.000000 0.000000
										}
									}
								}
								JOINT LThumb
								{
									OFFSET 0.000000 0.000000 0.000000
									CHANNELS 3 Zrotation Yrotation Xrotation
									End Site
									{
										OFFSET 0.000000 0.000000 0.000000
									}
								}
							}
						}
					}
				}
				JOINT RightShoulder
				{
					OFFSET 0.000000 0.000000 0.000000
					CHANNELS 3 Zrotation Yrotation Xrotation
					JOINT RightArm
					{
						OFFSET -3.136600 1.374050 -0.404650
						CHANNELS 3 Zrotation Yrotation Xrotation
						JOINT RightForeArm
						{
							OFFSET -5.241900 -0.000000 -0.000000
							CHANNELS 3 Zrotation Yrotation Xrotation
							JOINT RightHand
							{
								OFFSET -3.444170 -0.000000 -0.000000
								CHANNELS 3 Zrotation Yrotation Xrotation
								JOINT RightFingerBase
								{
									OFFSET 0.000000 0.000000 0.000000
									CHANNELS 3 Zrotation Yrotation Xrotation
									JOINT RightHandIndex1
									{
										OFFSET -0.622530 -0.000000 -0.000000
										CHANNELS 3 Zrotation Yrotation Xrotation
										End Site
										{
											OFFSET 0.000000 0.000000 0.000000
										}
									}
								}
								JOINT RThumb
								{
									OFFSET 0.000000 0.000000 0.000000
									CHANNELS 3 Zrotation Yrotation Xrotation
									End Site
									{
										OFFSET 0.000000 0.000000 0.000000
									}
								}
							}
						}
					}
				}
			}
		}
	}
}
MOTION
Frames: 4
Frame Time: 0.008333
29.877203 17.408578 4.318153 -122.406590 -82.881690 130.282213 17.387147 4.370279 -1.691883 -33.398169 -33.430110 11.666064 -11.265024 0.342116 0.876531 8.671758 -27.738077 -47.815346 8.655700 -16.580900 -54.891500 -23.264226 -2.512029 -4.148746 49.281743 24.033217 10.200550 14.760635 3.470176 -6.345024 -0.595866 -24.190746 -24.158686 -3.544800 11.528700 -34.084500 6.097179 1.076355 10.736279 0.626509 2.007310 -4.172832 -1.875615 0.379864 -13.086308 -6.546555 -13.455709 -18.373931 2.319731 -18.694788 15.576564 -1.492200 -8.720700 13.286600 8.528701 -7.094748 1.102365 -86.375135 12.717202 16.269503 18.021182 -30.526925 -5.792416 -0.369947 2.613500 4.360086 22.504063 32.321109 11.839900 -7.125000 0.000000 0.000000 -9.292400 61.213900 -3.687400 -10.487836 6.830256 2.003742 79.127451 -9.025281 44.842810 -23.410401 38.336484 -6.702044 0.544769 -3.112198 -14.755935 -25.893217 -24.093987 9.619500 7.125000 0.000000 0.000000 2.930800 -52.610400 -0.549300 
29.857096 17.408035 4.302175 -121.329817 -82.762283 129.244843 17.402546 4.397977 -1.693436 -33.223748 -33.427957 11.752259 -11.236104 0.303418 0.859808 8.515156 -28.034273 -47.068752 8.375500 -16.388600 -53.904300 -23.279861 -2.516221 -4.148218 49.511053 24.012847 10.245032 14.777276 3.481273 -6.385234 -0.646254 -24.072088 -24.510686 -3.446300 11.384600 -33.588300 6.297768 1.058646 10.614278 0.638624 1.987991 -4.169987 -1.923871 0.357709 -13.032131 -6.575961 -13.435360 -18.181239 2.422904 -18.639523 15.400310 -1.407000 -8.711200 13.146400 8.539028 -7.102323 1.107610 -86.378904 12.677923 16.485652 18.326370 -30.754779 -5.799491 -0.439660 2.579889 4.265779 20.989289 31.065401 10.640000 -7.125000 0.000000 0.000000 -10.247700 59.667100 -3.693100 -10.503527 6.826526 2.012644 79.232008 -9.149487 44.606223 -23.107663 38.080194 -6.584523 0.531085 -3.119898 -14.620354 -25.807389 -24.049874 9.560400 7.125000 0.000000 0.000000 3.015400 -52.544500 -0.560300 
29.835249 17.404557 4.287503 -120.910532 -82.694527 128.838893 17.439292 4.407589 -1.691299 -33.249285 -33.533646 11.935911 -11.199799 0.270068 0.879614 8.280482 -28.610811 -46.097515 7.947000 -16.080200 -52.371700 -23.299162 -2.524505 -4.147169 49.660571 24.000811 10.303814 14.791723 3.471181 -6.361487 -0.691284 -23.938368 -24.891128 -3.327900 11.207800 -32.984100 6.391947 1.063249 10.532286 0.645654 1.993081 -4.179704 -1.956527 0.352712 -13.030098 -6.557827 -13.456418 -18.062024 2.459267 -18.667427 15.299394 -1.382500 -8.729500 13.058500 8.531224 -7.112116 1.113701 -86.354464 12.733326 16.888929 18.721515 -31.143793 -5.935237 -0.445544 2.569926 3.930353 21.194315 30.822851 10.662000 -7.125000 0.000000 0.000000 -9.899500 59.473100 -3.520100 -10.506392 6.831464 2.020362 79.282219 -9.366462 44.472956 -22.850354 37.846560 -6.482315 0.521696 -3.124972 -14.524565 -25.731990 -24.049991 9.526500 7.125000 0.000000 0.000000 3.098100 -52.529600 -0.574600 
29.811664 17.400318 4.272504 -122.072849 -82.695648 130.042320 17.445774 4.399065 -1.686046 -33.401487 -33.686514 12.096331 -11.164816 0.249003 0.900581 8.043923 -29.336084 -45.250251 7.464800 -15.711100 -50.611100 -23.338060 -2.516194 -4.145816 49.642100 24.113139 10.282815 14.795307 3.411178 -6.236565 -0.711703 -23.826436 -25.163422 -3.156100 10.943500 -32.089700 6.255771 1.111541 10.411589 0.643145 2.031556 -4.191222 -1.935640 0.381660 -12.999272 -6.533173 -13.425489 -18.110369 2.462751 -18.641694 15.390349 -1.386200 -8.709500 13.122100 8.513762 -7.106212 1.111972 -86.292082 12.746673 17.372505 19.153466 -31.593755 -6.119291 -0.462534 2.568681 3.439696 21.573840 31.244573 11.001500 -7.125000 0.000000 0.000000 -9.707500 59.973200 -3.567200 -10.512159 6.842699 2.023094 79.341693 -9.570107 44.348574 -22.660086 37.677297 -6.414565 0.518342 -3.135300 -14.513530 -25.738307 -24.249292 9.609900 7.125000 0.000000 0.000000 3.146800 -52.734000 -0.599400 
